# xmcd CD database file generated by Grip 2.95
# 
# Track frame offsets:
#       150
#       19120
#       38385
#       53725
#       66650
#       79300
#       96279
#       112577
#       123680
#       137145
#       155700
# 
# Disc length: 2238 seconds
# 
# Revision: 3
# Processed by: cddbd v1.4b41PL1 Copyright (c) Steve Scherf et al.
# Submitted via: Grip 2.95
# 
DISCID=9208bc0b
DTITLE=Flaco Jimenez - Sleepytown
DYEAR=1900
DGENRE=
TTITLE0=A Little Drink, A Little Dance
TTITLE1=Alright, I'm Wrong
TTITLE2=Love Me Do
TTITLE3=I Found Out
TTITLE4=This Could Be The One
TTITLE5=No More Runnin' Around
TTITLE6=Sleepytown
TTITLE7=You've Got Me Wondering
TTITLE8=Desiree
TTITLE9=Amor
TTITLE10=Baila La Gente
EXTD=
EXTT0=
EXTT1=
EXTT2=
EXTT3=
EXTT4=
EXTT5=
EXTT6=
EXTT7=
EXTT8=
EXTT9=
EXTT10=
PLAYORDER=
